# AST/ASF file generated using VICON BodyLanguage
# -----------------------------------------------
:version 1.10
:name VICON
:units
  mass 1.0
  length 0.45
  angle deg
:documentation
   .ast/.asf automatically generated from VICON data using
   VICON BodyBuilder and BodyLanguage model FoxedUp or BRILLIANT.MOD
:root
   order TX TY TZ RX RY RZ
   axis XYZ
   position 0 0 0  
   orientation 0 -0 0 
:bonedata
  begin
     id 1 
     name lhipjoint
     direction 0.500677 -0.737119 0.453848 
     length 2.34727 
     axis 0 -0 0  XYZ
  end
  begin
     id 2 
     name lfemur
     direction 0.34202 -0.939693 0  
     length 7.53653  
     axis 0 -0 20  XYZ
    dof rx ry rz
    limits (-160.0 20.0)
           (-70.0 70.0)
           (-60.0 70.0)
  end
  begin
     id 3 
     name ltibia
     direction 0.34202 -0.939693 0   
     length 6.85572   
     axis 0 -0 20   XYZ
    dof rx
    limits (-10.0 170.0)
  end
  begin
     id 4 
     name lfoot
     direction 0.155313 -0.426718 0.890949   
     length 2.18324   
     axis -90 -1.13533e-015 20   XYZ
    dof rx rz
    limits (-45.0 90.0)
           (-70.0 20.0)
  end
  begin
     id 5 
     name ltoes
     direction 1.53474e-011 -4.21647e-011 1   
     length 1.06748   
     axis -90 -1.13533e-015 20   XYZ
    dof rx
    limits (-90.0 20.0)
  end
  begin
     id 6 
     name rhipjoint
     direction -0.632471 -0.659587 0.406111   
     length 2.62319  
     axis 0 -0 0  XYZ 
  end
  begin
     id 7 
     name rfemur
     direction -0.34202 -0.939693 0   
     length 7.21735   
     axis 0 -0 -20   XYZ
    dof rx ry rz
    limits (-160.0 20.0)
           (-70.0 70.0)
           (-70.0 60.0)
  end
  begin
     id 8 
     name rtibia
     direction -0.34202 -0.939693 0   
     length 7.02558   
     axis 0 -0 -20   XYZ
    dof rx
    limits (-10.0 170.0)
 end
 begin
     id 9 
     name rfoot
     direction -0.16057 -0.441164 0.882945   
     length 2.10014  
     axis -90 1.13533e-015 -20   XYZ
    dof rx rz
    limits (-45.0 90.0)
           (-20.0 70.0)
  end
  begin
     id 10 
     name rtoes
     direction -1.53553e-011 -4.2192e-011 1   
     length 1.02554   
     axis -90 1.13533e-015 -20   XYZ
    dof rx
    limits (-90.0 20.0)
  end
  begin
     id 11 
     name lowerback
     direction 0.0401429 0.998861 -0.0258085   
     length 1.80848   
     axis 0 -0 0   XYZ
    dof rx ry rz
    limits (-20.0 45.0)
           (-30.0 30.0)
           (-30.0 30.0)
  end
  begin
     id 12 
     name upperback
     direction -0.0130978 0.999914 -0.000352645   
     length 1.8116   
     axis 0 -0 0   XYZ
    dof rx ry rz
    limits (-20.0 45.0)
           (-30.0 30.0)
           (-30.0 30.0)
  end
  begin
     id 13 
     name thorax
     direction -0.0300198 0.999453 0.0138573   
     length 1.81778   
     axis 0 -0 0   XYZ
    dof rx ry rz
    limits (-20.0 45.0)
           (-30.0 30.0)
           (-30.0 30.0)
  end
  begin
     id 14 
     name lowerneck
     direction -0.0401726 0.999191 -0.00173647   
     length 2.10594   
     axis 0 -0 0   XYZ
    dof rx ry rz
    limits (-20.0 45.0)
           (-30.0 30.0)
           (-30.0 30.0)
  end
  begin
     id 15 
     name upperneck
     direction 0.0119835 0.998501 0.0534085   
     length 2.07325   
     axis 0 -0 0   XYZ
    dof rx ry rz
    limits (-20.0 45.0)
           (-30.0 30.0)
           (-30.0 30.0)
  end
  begin
     id 16
     name head
     direction 0.00628309 0.999826 0.0175921  
     length 2.15096  
     axis 0 -0 0   XYZ
    dof rx ry rz
    limits (-20.0 45.0)
           (-30.0 30.0)
           (-30.0 30.0)
  end
  begin
     id 17 
     name lclavicle
     direction 0.895501 0.429681 -0.115981  
     length 4.18092  
     axis 0 -0 0   XYZ
    dof ry rz
    limits (-20.0 10.0)
           (0.0 20.0)
  end
  begin
     id 18 
     name lhumerus
     direction 1 -4.48961e-011 -3.38433e-028   
     length 5.77237   
     axis 180 -30 -90   XYZ
    dof rx ry rz
    limits (-60.0 90.0)
           (-90.0 90.0)
           (-90.0 90.0)
  end
  begin
     id 19
     name lradius
     direction 1 -4.4901e-011 1.11983e-026   
     length 2.91878   
     axis 180 -30 -90   XYZ
    dof rx
    limits (-10.0 170.0)
  end
  begin
     id 20
     name lwrist
     direction 1 -4.48934e-011 1.88176e-026   
     length 1.45939   
     axis -1.23311e-014 90 90   XYZ
    dof ry
    limits (-180.0 0.0)
 end
  begin
     id 21 
     name lhand
     direction 1 -4.4895e-011 3.76352e-026   
     length 1.06566   
     axis -2.40147e-014 90 90   XYZ
    dof rx rz
    limits (-90.0 90.0)
           (-45.0 45.0)
  end
  begin
     id 22 
     name lfingers
     direction 1 -4.49005e-011 7.52705e-026   
     length 0.859162   
     axis -4.80295e-014 90 90   XYZ
    dof rx
    limits (0.0 90.0)
  end
  begin
     id 23
     name lthumb
     direction 0.707107 -6.34885e-011 0.707107   
     length 1.23359   
     axis -90 45 -9.86935e-015   XYZ
    dof rx rz
    limits (-45.0 45.0)
           (-45.0 45.0)
  end
  begin
     id 24 
     name rclavicle
     direction -0.91006 0.40451 -0.0903492   
     length 4.23293  
     axis 0 -0 0   XYZ 
    dof ry rz
    limits (-10.0 20.0)
           (-20.0 0.0)
  end
  begin
     id 25 
     name rhumerus
     direction -1 -4.4897e-011 1.7415e-027  
     length 5.49854   
     axis 180 30 90   XYZ
    dof rx ry rz
    limits (-90.0 60.0)
           (-90.0 90.0)
           (-90.0 90.0)
  end
  begin
     id 26 
     name rradius
     direction -1 -4.48963e-011 1.21259e-026   
     length 3.1186   
     axis 180 30 90   XYZ
    dof rx
    limits (-10.0 170.0)
  end
  begin
     id 27 
     name rwrist
     direction -1 -4.48967e-011 1.88176e-026   
     length 1.5593   
     axis -1.23311e-014 -90 -90   XYZ
    dof ry
    limits (-180.0 0.0)
  end
  begin
     id 28
     name rhand
     direction -1 -4.4895e-011 3.76352e-026   
     length 0.71207   
     axis -2.40147e-014 -90 -90   XYZ
    dof rx rz
    limits (-90.0 90.0)
           (-45.0 45.0)
  end
  begin
     id 29
     name rfingers
     direction -1 -4.49005e-011 7.52705e-026   
     length 0.574089   
     axis -4.80295e-014 -90 -90   XYZ
    dof rx
    limits (0.0 90.0)
  end
  begin
     id 30
     name rthumb
     direction -0.707107 -6.34982e-011 0.707107   
     length 0.824281   
     axis -90 -45 9.86935e-015   XYZ
    dof rx rz
    limits (-45.0 45.0)
           (-45.0 45.0)
  end
:hierarchy
  begin
    root lhipjoint rhipjoint lowerback
    lhipjoint lfemur
    lfemur ltibia
    ltibia lfoot
    lfoot ltoes
    rhipjoint rfemur
    rfemur rtibia
    rtibia rfoot
    rfoot rtoes
    lowerback upperback
    upperback thorax
    thorax lowerneck lclavicle rclavicle
    lowerneck upperneck
    upperneck head
    lclavicle lhumerus
    lhumerus lradius
    lradius lwrist
    lwrist lhand lthumb
    lhand lfingers
    rclavicle rhumerus
    rhumerus rradius
    rradius rwrist
    rwrist rhand rthumb
    rhand rfingers
  end

#!OML:ASF C:\ViconDB\ViconDB\414\Spring2016\042216\male.ASF
:FULLY-SPECIFIED
:DEGREES
380
root 16.7109 24.3769 3.71092 -169.984 46.3179 -174.118
lowerback 10.8846 -3.53797 8.18018
upperback 0.709907 -3.63496 -0.158634
thorax -5.89162 -1.97097 -4.183
lowerneck -4.0845 4.93962 -4.27719
upperneck -21.4246 8.47219 1.65634
head -6.09048 4.90392 0.8329
rclavicle 5.01931e-014 2.18663e-014
rhumerus -17.22 9.7652 -82.7168
rradius 65.8264
rwrist 14.5242
rhand 13.3005 -16.8244
rfingers 7.12502
rthumb 38.2496 -42.5552
lclavicle 5.01931e-014 2.18663e-014
lhumerus -23.4689 14.9844 75.2086
lradius 52.2976
lwrist 2.57384
lhand -9.46096 11.2098
lfingers 7.12502
lthumb 16.5027 40.528
rfemur -43.7794 -14.5054 24.6298
rtibia 83.8843
rfoot 2.98027 -4.69887
rtoes -3.40132
lfemur -42.9132 5.61905 -16.3596
ltibia 78.7456
lfoot -3.40928 8.02968
ltoes -9.457
381
root 16.701 24.3635 3.74094 -169.952 46.3798 -174.062
lowerback 10.3199 -3.53177 8.07296
upperback 0.729033 -3.70253 -0.20697
thorax -5.55965 -1.99375 -4.19019
lowerneck -4.15577 4.96259 -4.15751
upperneck -21.2417 8.52342 1.86456
head -6.02498 4.90097 0.883233
rclavicle 1.05356e-014 -1.15295e-014
rhumerus -18.9033 10.3329 -83.0887
rradius 61.5657
rwrist 18.778
rhand 13.9075 -15.2013
rfingers 7.12502
rthumb 38.8223 -40.772
lclavicle 1.05356e-014 -1.15295e-014
lhumerus -25.5954 15.0841 74.7996
lradius 48.5279
lwrist -0.796363
lhand -8.16992 10.4428
lfingers 7.12502
lthumb 17.7453 39.6531
rfemur -43.7421 -14.6622 24.7893
rtibia 86.3873
rfoot 2.89208 -5.86816
rtoes -3.90322
lfemur -42.3756 5.92788 -16.4499
ltibia 79.8132
lfoot -3.51891 8.47798
ltoes -9.94444
382
root 16.7009 24.3249 3.75693 -169.96 46.5092 -173.867
lowerback 9.76954 -3.50685 8.1409
upperback 0.724029 -3.72046 -0.239799
thorax -5.26526 -1.9979 -4.28663
lowerneck -4.18173 5.03109 -4.09699
upperneck -21.0075 8.60991 2.00048
head -5.95182 4.91968 0.918279
rclavicle 1.59028e-015 1.59028e-015
rhumerus -20.8208 11.3897 -83.3213
rradius 57.6199
rwrist 21.3738
rhand 13.2783 -14.5809
rfingers 7.12502
rthumb 38.2286 -40.3176
lclavicle 1.59028e-015 1.59028e-015
lhumerus -27.9218 15.5369 74.0558
lradius 44.9255
lwrist -5.30994
lhand -6.55909 8.89766
lfingers 7.12502
lthumb 19.2948 37.9605
rfemur -43.0843 -14.5411 24.9388
rtibia 88.2146
rfoot 3.10313 -6.92186
rtoes -3.33065
lfemur -41.2453 6.25089 -16.381
ltibia 80.3647
lfoot -3.53186 8.66774
ltoes -10.2568
383
root 16.7007 24.2691 3.77424 -169.763 46.5899 -173.365
lowerback 9.26128 -3.53918 8.4058
upperback 0.656897 -3.78457 -0.215277
thorax -5.07617 -2.03336 -4.42161
lowerneck -4.35244 5.07167 -4.02681
upperneck -20.5566 8.65977 2.2549
head -5.78911 4.90944 1.00034
rclavicle -1.68967e-014 -2.8625e-014
rhumerus -22.8796 12.6369 -83.5052
rradius 54.023
rwrist 23.534
rhand 13.083 -14.1095
rfingers 7.12502
rthumb 38.0442 -39.8966
lclavicle -1.68967e-014 -2.8625e-014
lhumerus -30.7766 16.08 72.86
lradius 42.2098
lwrist -10.0222
lhand -4.98393 7.35004
lfingers 7.12502
lthumb 20.8089 36.2542
rfemur -42.1535 -14.3531 25.3689
rtibia 89.3215
rfoot 4.05647 -7.42221
rtoes -3.48106
lfemur -39.8974 6.38262 -15.9782
ltibia 80.4289
lfoot -3.40321 8.87116
ltoes -9.27595
384
root 16.7141 24.1958 3.77989 -169.999 46.8693 -173.18
lowerback 8.78962 -3.49282 8.39996
upperback 0.61837 -3.7766 -0.270147
thorax -4.85423 -2.02655 -4.4999
lowerneck -4.55032 5.16587 -3.86385
upperneck -20.0642 8.75138 2.34882
head -5.60058 4.92291 1.01724
rclavicle 9.2733e-014 -8.74653e-015
rhumerus -25.2048 13.5432 -83.6964
rradius 50.9291
rwrist 24.8417
rhand 12.8494 -14.0884
rfingers 7.12502
rthumb 37.8236 -39.9355
lclavicle 9.2733e-014 -8.74653e-015
lhumerus -33.764 16.9059 71.4901
lradius 39.9223
lwrist -13.3615
lhand -4.93864 6.31659
lfingers 7.12502
lthumb 20.8524 35.216
rfemur -40.5809 -13.9411 25.4108
rtibia 89.7384
rfoot 5.16313 -7.63648
rtoes -3.73867
lfemur -37.9172 6.5902 -15.8179
ltibia 80.0208
lfoot -3.19256 8.45985
ltoes -9.07262
385
root 16.7315 24.1041 3.77835 -170.157 47.1217 -172.802
lowerback 8.3421 -3.47254 8.50867
upperback 0.552078 -3.78414 -0.260522
thorax -4.6806 -2.03077 -4.56977
lowerneck -4.75017 5.27283 -3.76748
upperneck -19.5378 8.85511 2.45435
head -5.40584 4.94547 1.04894
rclavicle 8.54774e-015 -1.55052e-014
rhumerus -27.7502 14.3615 -83.9043
rradius 48.5183
rwrist 25.6759
rhand 12.8212 -14.032
rfingers 7.12502
rthumb 37.797 -39.8861
lclavicle 8.54774e-015 -1.55052e-014
lhumerus -37.4126 18.8289 69.2718
lradius 39.0645
lwrist -18.6781
lhand -3.55553 5.86827
lfingers 7.12502
lthumb 22.1807 34.6157
rfemur -38.639 -13.4912 25.5909
rtibia 89.4364
rfoot 6.57353 -7.45482
rtoes -4.56169
lfemur -35.6214 6.71839 -15.5133
ltibia 79.1348
lfoot -2.54871 7.8242
ltoes -10.0936
386
root 16.7575 23.9799 3.78594 -170.282 47.3513 -172.36
lowerback 7.99856 -3.40074 8.39627
upperback 0.422459 -3.72445 -0.124007
thorax -4.5989 -2.00023 -4.38476
lowerneck -5.05322 5.32056 -3.75317
upperneck -18.9186 8.87302 2.55709
head -5.16653 4.93319 1.10211
rclavicle 5.74488e-014 -4.77083e-015
rhumerus -30.7494 14.9622 -83.9176
rradius 47.2099
rwrist 26.7051
rhand 13.4438 -13.3712
rfingers 7.12502
rthumb 38.3849 -39.0646
lclavicle 5.74488e-014 -4.77083e-015
lhumerus -41.0412 20.1612 67.3111
lradius 38.7373
lwrist -20.6766
lhand -3.65725 5.88713
lfingers 7.12502
lthumb 22.0831 34.6462
rfemur -36.5222 -12.8205 25.9059
rtibia 88.4982
rfoot 8.38386 -7.33338
rtoes -3.99741
lfemur -33.2989 6.85138 -15.1161
ltibia 77.9274
lfoot -1.86207 7.20351
ltoes -10.7964
387
root 16.7825 23.8413 3.7782 -170.672 47.5644 -172.275
lowerback 7.51209 -3.26717 8.23439
upperback 0.293862 -3.60651 -0.079964
thorax -4.43066 -1.93906 -4.28417
lowerneck -5.36286 5.30287 -3.76238
upperneck -18.2846 8.79543 2.62096
head -4.91865 4.87867 1.15075
rclavicle 1.963e-014 -1.27222e-014
rhumerus -34.1508 15.1173 -83.8271
rradius 47.1626
rwrist 27.1241
rhand 14.3059 -13.0951
rfingers 7.12502
rthumb 39.1979 -38.5582
lclavicle 1.963e-014 -1.27222e-014
lhumerus -44.5389 21.036 65.5673
lradius 38.8457
lwrist -20.4731
lhand -4.70119 6.17818
lfingers 7.12502
lthumb 21.0805 35.0523
rfemur -34.1442 -12.34 25.7998
rtibia 86.9294
rfoot 10.0919 -6.58245
rtoes -4.34095
lfemur -30.7328 6.74345 -15.0332
ltibia 76.296
lfoot -1.15374 6.78399
ltoes -10.1031
388
root 16.8102 23.6743 3.76942 -170.743 47.6515 -171.854
lowerback 6.88844 -3.15466 8.32238
upperback 0.130416 -3.50039 0.051715
thorax -4.2341 -1.88679 -4.23389
lowerneck -5.64267 5.29267 -3.83575
upperneck -17.657 8.73378 2.71926
head -4.68362 4.83367 1.21773
rclavicle 6.92268e-014 -7.55382e-015
rhumerus -37.8294 15.2433 -83.6717
rradius 47.9578
rwrist 26.2704
rhand 14.3638 -12.6654
rfingers 7.12502
rthumb 39.2525 -38.1126
lclavicle 6.92268e-014 -7.55382e-015
lhumerus -48.0889 21.5429 64.0705
lradius 39.9928
lwrist -18.1508
lhand -5.49 7.38834
lfingers 7.12502
lthumb 20.3226 36.3451
rfemur -31.6977 -11.7641 26.0332
rtibia 84.7897
rfoot 11.5936 -5.89515
rtoes -3.74772
lfemur -28.2413 6.62671 -14.7012
ltibia 74.4195
lfoot -0.380281 6.44764
ltoes -10.4313
389
root 16.8441 23.4897 3.76442 -171.309 47.8477 -171.974
lowerback 6.31102 -2.9848 7.86516
upperback 0.0198905 -3.36136 0.131185
thorax -3.97297 -1.80486 -3.93631
lowerneck -6.00127 5.24193 -3.90531
upperneck -17.0282 8.61377 2.73882
head -4.43109 4.76631 1.26402
rclavicle -2.70099e-014 -9.14409e-015
rhumerus -41.4582 15.1775 -83.3681
rradius 49.3498
rwrist 24.1972
rhand 14.55 -13.0272
rfingers 7.12502
rthumb 39.4279 -38.4233
lclavicle -2.70099e-014 -9.14409e-015
lhumerus -51.6268 21.544 62.8807
lradius 41.8873
lwrist -14.2313
lhand -5.95416 8.44444
lfingers 7.12502
lthumb 19.8764 37.448
rfemur -29.0517 -11.1807 25.8431
rtibia 82.2164
rfoot 12.979 -4.94718
rtoes -3.3081
lfemur -25.5212 6.42497 -14.7868
ltibia 72.3062
lfoot 0.225741 6.46919
ltoes -10.4938
390
root 16.8748 23.2788 3.76072 -171.637 47.9261 -171.907
lowerback 5.62761 -2.78117 7.58907
upperback -0.1766 -3.16072 0.291215
thorax -3.74274 -1.69803 -3.66269
lowerneck -6.29257 5.17132 -4.06824
upperneck -15.9978 8.43669 2.66503
head -4.54268 4.68806 1.39853
rclavicle -5.51627e-015 8.74653e-015
rhumerus -45.3444 15.034 -82.9361
rradius 51.2331
rwrist 21.1375
rhand 14.0454 -14.0267
rfingers 7.12502
rthumb 38.9523 -39.5604
lclavicle -5.51627e-015 8.74653e-015
lhumerus -55.0957 21.2773 61.8607
lradius 44.1281
lwrist -9.30525
lhand -6.11191 9.49041
lfingers 7.12502
lthumb 19.7248 38.5096
rfemur -26.5269 -10.6698 25.8472
rtibia 79.2484
rfoot 14.1314 -4.0278
rtoes -3.84508
lfemur -22.9952 6.25116 -14.7318
ltibia 70.01
lfoot 0.772819 6.49779
ltoes -10.2856
391
root 16.8971 22.9989 3.76608 -172.044 47.9795 -171.907
lowerback 4.95922 -2.5927 7.28724
upperback -0.409885 -2.97706 0.4079
thorax -3.56458 -1.60221 -3.41372
lowerneck -6.30081 5.11544 -4.15991
upperneck -15.4066 8.2841 2.66103
head -4.31871 4.59353 1.42779
rclavicle -4.31487e-014 4.96962e-015
rhumerus -49.3206 14.9798 -82.4715
rradius 53.2277
rwrist 17.7895
rhand 13.8044 -14.7229
rfingers 7.12502
rthumb 38.7251 -40.3211
lclavicle -4.31487e-014 4.96962e-015
lhumerus -58.5756 20.8975 60.6451
lradius 46.3889
lwrist -4.48008
lhand -6.19193 10.185
lfingers 7.12502
lthumb 19.6478 39.2121
rfemur -24.1579 -10.1018 25.7822
rtibia 76.1307
rfoot 15.3764 -3.34949
rtoes -2.56178
lfemur -20.629 6.0552 -14.7591
ltibia 67.7105
lfoot 1.40152 6.49109
ltoes -10.364
392
root 16.9161 22.7495 3.76764 -173.095 47.8781 -172.937
lowerback 4.23874 -2.55122 6.34863
upperback -0.744596 -3.03205 0.338714
thorax -3.46497 -1.62191 -2.97942
lowerneck -6.22249 5.18115 -4.11827
upperneck -14.7027 8.26783 2.61928
head -4.06906 4.55309 1.4164
rclavicle 7.3072e-014 1.33186e-014
rhumerus -53.0078 14.5237 -81.7439
rradius 54.9956
rwrist 14.8896
rhand 13.1493 -15.6371
rfingers 7.12502
rthumb 38.1068 -41.4071
lclavicle 7.3072e-014 1.33186e-014
lhumerus -62.0987 20.4018 59.2405
lradius 48.2824
lwrist -1.10076
lhand -6.46904 10.5598
lfingers 7.12502
lthumb 19.3814 39.6139
rfemur -21.676 -9.8223 24.8992
rtibia 72.5598
rfoot 16.0494 -2.77784
rtoes -2.44975
lfemur -18.2521 5.64225 -15.5908
ltibia 65.1292
lfoot 1.68022 6.69385
ltoes -10.0883
